# Blender v3.0.0 OBJ File: ''
# www.blender.org
mtllib cubito.mtl
o cubo_aruco
v 0.030000 -0.030000 0.030000
v -0.030000 -0.030000 0.030000
v 0.030000 -0.030000 -0.030000
v -0.030000 -0.030000 -0.030000
v 0.030000 0.030000 0.030000
v -0.030000 0.030000 0.030000
v -0.030000 0.030000 -0.030000
v 0.030000 0.030000 -0.030000
vt 1.000000 0.000000
vt 0.000000 0.000000
vt 1.000000 1.000000
vt 0.000000 1.000000
vt 1.000000 1.000000
vt 0.000000 1.000000
vt 0.000000 -0.111681
vt 1.000000 -0.111681
vt 0.000000 -1.111681
vt 1.000000 -1.111681
vt 0.000000 1.000000
vt 1.000000 1.000000
vt 0.000000 0.000000
vt 1.000000 0.000000
vt 0.000000 1.000000
vt 0.000000 0.000000
vt 1.000000 0.000000
vt 0.000000 0.000000
vn 0.0000 -1.0000 0.0000
vn 0.0000 0.0000 1.0000
vn -1.0000 0.0000 0.0000
vn 0.0000 0.0000 -1.0000
vn 1.0000 0.0000 0.0000
vn 0.0000 1.0000 0.0000
g cubo_aruco_cubo_aruco_Material.001
usemtl Material.001
s off
f 1/1/1 2/2/1 3/3/1
f 3/3/1 2/2/1 4/4/1
f 5/5/2 6/6/2 1/1/2
f 1/1/2 6/6/2 2/2/2
f 6/7/3 7/8/3 2/9/3
f 2/9/3 7/8/3 4/10/3
f 7/11/4 8/12/4 4/13/4
f 4/13/4 8/12/4 3/14/4
f 8/12/5 5/15/5 3/14/5
f 3/14/5 5/15/5 1/16/5
f 8/12/6 7/11/6 5/17/6
f 5/17/6 7/11/6 6/18/6
